<svg viewBox="0 -6 24 31" width="64" height="83.2" shape-rendering="crispEdges" role="img" aria-label="Raymond Ventional" xmlns="http://www.w3.org/2000/svg"><g class="mc-all"><g class="mc-legl"><rect x="8" y="19" width="1" height="4" fill="#c9c9d2"/><rect x="6" y="22" width="5" height="1" fill="#ffd54a"/><rect x="7" y="22" width="1" height="1" fill="#fff6b0"/><rect x="6" y="23" width="1" height="1" fill="#b8861b"/><rect x="8" y="23" width="1" height="1" fill="#b8861b"/><rect x="10" y="23" width="1" height="1" fill="#b8861b"/><rect x="7" y="21" width="3" height="1" fill="#fff"/></g><g class="mc-legr"><rect x="15" y="19" width="1" height="4" fill="#c9c9d2"/><rect x="13" y="22" width="5" height="1" fill="#ffd54a"/><rect x="14" y="22" width="1" height="1" fill="#fff6b0"/><rect x="13" y="23" width="1" height="1" fill="#b8861b"/><rect x="15" y="23" width="1" height="1" fill="#b8861b"/><rect x="17" y="23" width="1" height="1" fill="#b8861b"/><rect x="14" y="21" width="3" height="1" fill="#fff"/></g><g class="mc-arml"><rect x="2" y="11" width="3" height="1" fill="#ffd54a"/><rect x="1" y="10" width="2" height="3" fill="#ffe0c0"/></g><g class="mc-armr"><rect x="19" y="11" width="3" height="1" fill="#ffd54a"/><rect x="21" y="10" width="2" height="3" fill="#ffe0c0"/><rect x="21" y="10" width="3" height="4" fill="#fff"/><rect x="21" y="10" width="1" height="4" fill="#2f6fe0"/><rect x="22" y="11" width="2" height="1" fill="#2f6fe0"/><rect x="22" y="13" width="2" height="1" fill="#c8c8d4"/></g><rect x="3" y="5" width="18" height="4" fill="#9a9aa6"/><rect x="4" y="6" width="16" height="13" fill="#0e1c44"/><rect x="5" y="7" width="14" height="11" fill="#2c4a8a"/><rect x="5" y="7" width="14" height="1" fill="#ffffff44"/><rect x="6" y="18" width="1" height="1" fill="#ffd54a"/><rect x="8" y="18" width="1" height="1" fill="#ffd54a"/><rect x="10" y="18" width="1" height="1" fill="#ffd54a"/><rect x="14" y="18" width="1" height="1" fill="#ffd54a"/><rect x="16" y="18" width="1" height="1" fill="#ffd54a"/><rect x="5" y="16" width="3" height="2" fill="#1a1a1a"/><rect x="5" y="16" width="1" height="1" fill="#8a8a8a"/><rect x="16" y="16" width="3" height="2" fill="#1a1a1a"/><rect x="18" y="16" width="1" height="1" fill="#8a8a8a"/><rect x="5" y="19" width="6" height="3" fill="#2f5fb8"/><rect x="13" y="19" width="6" height="3" fill="#2f5fb8"/><rect x="5" y="19" width="14" height="1" fill="#2f3640"/><rect x="11" y="19" width="2" height="1" fill="#ffd54a"/><rect x="5" y="21" width="6" height="1" fill="#3a424e"/><rect x="13" y="21" width="6" height="1" fill="#3a424e"/><rect x="8" y="18" width="8" height="4" fill="#2f5fb8"/><rect x="8" y="17" width="1" height="1" fill="#2f5fb8"/><rect x="15" y="17" width="1" height="1" fill="#2f5fb8"/><rect x="8" y="18" width="1" height="1" fill="#ffd54a"/><rect x="15" y="18" width="1" height="1" fill="#ffd54a"/><rect x="10" y="20" width="4" height="1" fill="#00000033"/><rect x="10" y="19" width="4" height="1" fill="#ffffff22"/><rect x="5" y="19" width="14" height="1" fill="#7a4a1e"/><rect x="11" y="19" width="2" height="1" fill="#ffd54a"/><rect x="5" y="20" width="3" height="2" fill="#9a6a2e"/><rect x="16" y="20" width="3" height="2" fill="#9a6a2e"/><rect x="18" y="17" width="1" height="3" fill="#b0764a"/><rect x="17" y="16" width="3" height="1" fill="#cfcfd8"/><rect x="4" y="2" width="16" height="5" fill="#d6322a"/><rect x="5" y="1" width="14" height="1" fill="#d6322a"/><rect x="4" y="6" width="16" height="1" fill="#0000004d"/><rect x="3" y="7" width="18" height="1" fill="#d6322a"/><rect x="11" y="0" width="2" height="1" fill="#ffffff66"/><rect x="8" y="3" width="8" height="2" fill="#ffffff55"/><g class="mc-eyes"><rect x="6" y="9" width="3" height="1" fill="#1a1030"/><rect x="14" y="9" width="3" height="1" fill="#1a1030"/><rect x="6" y="10" width="3" height="4" fill="#1a1030"/><rect x="6" y="10" width="2" height="2" fill="#fff"/><rect x="8" y="12" width="1" height="1" fill="#9fe8ff"/><rect x="8" y="13" width="1" height="1" fill="#4a3a7a"/><rect x="14" y="10" width="3" height="4" fill="#1a1030"/><rect x="14" y="10" width="2" height="2" fill="#fff"/><rect x="16" y="12" width="1" height="1" fill="#9fe8ff"/><rect x="16" y="13" width="1" height="1" fill="#4a3a7a"/></g><rect x="5" y="9" width="5" height="1" fill="#555"/><rect x="5" y="14" width="5" height="1" fill="#555"/><rect x="5" y="9" width="1" height="6" fill="#555"/><rect x="9" y="9" width="1" height="6" fill="#555"/><rect x="13" y="9" width="5" height="1" fill="#555"/><rect x="13" y="14" width="5" height="1" fill="#555"/><rect x="13" y="9" width="1" height="6" fill="#555"/><rect x="17" y="9" width="1" height="6" fill="#555"/><rect x="10" y="10" width="3" height="1" fill="#555"/><rect x="6" y="10" width="1" height="1" fill="#ffffff88"/><rect x="14" y="10" width="1" height="1" fill="#ffffff88"/><rect x="5" y="14" width="2" height="2" fill="#c08070"/><rect x="17" y="14" width="2" height="2" fill="#c08070"/><rect x="5" y="14" width="1" height="1" fill="#ffb0c8"/><rect x="17" y="14" width="1" height="1" fill="#ffb0c8"/><g class="mc-mouth"><rect x="10" y="15" width="1" height="1" fill="#9a4a3a"/><rect x="11" y="16" width="2" height="1" fill="#9a4a3a"/><rect x="13" y="15" width="1" height="1" fill="#9a4a3a"/><rect x="8" y="14" width="7" height="1" fill="#8a8a94"/><rect x="7" y="15" width="1" height="1" fill="#8a8a94"/><rect x="15" y="15" width="1" height="1" fill="#8a8a94"/></g></g></svg>
