<svg viewBox="0 -6 24 31" width="64" height="83.2" shape-rendering="crispEdges" role="img" aria-label="Sandy Blaster" xmlns="http://www.w3.org/2000/svg"><g class="mc-all"><g class="mc-legl"><rect x="8" y="19" width="1" height="4" fill="#c9c9d2"/><rect x="6" y="22" width="5" height="1" fill="#ffd54a"/><rect x="7" y="22" width="1" height="1" fill="#fff6b0"/><rect x="6" y="23" width="1" height="1" fill="#b8861b"/><rect x="8" y="23" width="1" height="1" fill="#b8861b"/><rect x="10" y="23" width="1" height="1" fill="#b8861b"/></g><g class="mc-legr"><rect x="15" y="19" width="1" height="4" fill="#c9c9d2"/><rect x="13" y="22" width="5" height="1" fill="#ffd54a"/><rect x="14" y="22" width="1" height="1" fill="#fff6b0"/><rect x="13" y="23" width="1" height="1" fill="#b8861b"/><rect x="15" y="23" width="1" height="1" fill="#b8861b"/><rect x="17" y="23" width="1" height="1" fill="#b8861b"/></g><g class="mc-arml"><rect x="2" y="11" width="3" height="1" fill="#ffd54a"/><rect x="1" y="10" width="2" height="3" fill="#ffe0c0"/></g><g class="mc-armr"><rect x="19" y="11" width="3" height="1" fill="#ffd54a"/><rect x="21" y="10" width="2" height="3" fill="#ffe0c0"/></g><rect x="3" y="5" width="18" height="4" fill="#2f6fe0"/><rect x="21" y="3" width="2" height="3" fill="#2f6fe0"/><rect x="22" y="6" width="1" height="7" fill="#2f6fe0"/><rect x="21" y="12" width="2" height="2" fill="#2f6fe0"/><rect x="4" y="6" width="16" height="13" fill="#7a5a08"/><rect x="5" y="7" width="14" height="11" fill="#f2c230"/><rect x="5" y="7" width="14" height="1" fill="#ffffff44"/><rect x="6" y="18" width="1" height="1" fill="#ffd54a"/><rect x="8" y="18" width="1" height="1" fill="#ffd54a"/><rect x="10" y="18" width="1" height="1" fill="#ffd54a"/><rect x="14" y="18" width="1" height="1" fill="#ffd54a"/><rect x="16" y="18" width="1" height="1" fill="#ffd54a"/><rect x="5" y="16" width="3" height="2" fill="#1a1a1a"/><rect x="5" y="16" width="1" height="1" fill="#8a8a8a"/><rect x="16" y="16" width="3" height="2" fill="#1a1a1a"/><rect x="18" y="16" width="1" height="1" fill="#8a8a8a"/><rect x="5" y="19" width="1" height="1" fill="#e8402f"/><rect x="6" y="19" width="1" height="1" fill="#e8402f"/><rect x="7" y="19" width="1" height="1" fill="#e8402f"/><rect x="8" y="19" width="1" height="1" fill="#e8402f"/><rect x="9" y="19" width="1" height="1" fill="#e8402f"/><rect x="10" y="19" width="1" height="1" fill="#e8402f"/><rect x="11" y="19" width="1" height="1" fill="#e8402f"/><rect x="12" y="19" width="1" height="1" fill="#e8402f"/><rect x="13" y="19" width="1" height="1" fill="#e8402f"/><rect x="14" y="19" width="1" height="1" fill="#e8402f"/><rect x="15" y="19" width="1" height="1" fill="#e8402f"/><rect x="16" y="19" width="1" height="1" fill="#e8402f"/><rect x="17" y="19" width="1" height="1" fill="#e8402f"/><rect x="18" y="19" width="1" height="1" fill="#e8402f"/><rect x="4" y="20" width="1" height="1" fill="#e8402f"/><rect x="5" y="20" width="1" height="1" fill="#e8402f"/><rect x="6" y="20" width="1" height="1" fill="#e8402f"/><rect x="7" y="20" width="1" height="1" fill="#e8402f"/><rect x="8" y="20" width="1" height="1" fill="#e8402f"/><rect x="9" y="20" width="1" height="1" fill="#e8402f"/><rect x="10" y="20" width="1" height="1" fill="#e8402f"/><rect x="11" y="20" width="1" height="1" fill="#e8402f"/><rect x="12" y="20" width="1" height="1" fill="#e8402f"/><rect x="13" y="20" width="1" height="1" fill="#e8402f"/><rect x="14" y="20" width="1" height="1" fill="#e8402f"/><rect x="15" y="20" width="1" height="1" fill="#e8402f"/><rect x="16" y="20" width="1" height="1" fill="#e8402f"/><rect x="17" y="20" width="1" height="1" fill="#e8402f"/><rect x="18" y="20" width="1" height="1" fill="#e8402f"/><rect x="19" y="20" width="1" height="1" fill="#e8402f"/><rect x="4" y="21" width="1" height="1" fill="#e8402f"/><rect x="5" y="21" width="1" height="1" fill="#fff"/><rect x="6" y="21" width="1" height="1" fill="#e8402f"/><rect x="7" y="21" width="1" height="1" fill="#fff"/><rect x="9" y="21" width="1" height="1" fill="#fff"/><rect x="10" y="21" width="1" height="1" fill="#e8402f"/><rect x="11" y="21" width="1" height="1" fill="#fff"/><rect x="12" y="21" width="1" height="1" fill="#e8402f"/><rect x="13" y="21" width="1" height="1" fill="#fff"/><rect x="14" y="21" width="1" height="1" fill="#e8402f"/><rect x="16" y="21" width="1" height="1" fill="#e8402f"/><rect x="17" y="21" width="1" height="1" fill="#fff"/><rect x="18" y="21" width="1" height="1" fill="#e8402f"/><rect x="19" y="21" width="1" height="1" fill="#fff"/><rect x="4" y="3" width="16" height="4" fill="#2f6fe0"/><rect x="5" y="2" width="14" height="1" fill="#2f6fe0"/><rect x="4" y="7" width="4" height="1" fill="#2f6fe0"/><rect x="16" y="7" width="4" height="1" fill="#2f6fe0"/><rect x="3" y="5" width="2" height="5" fill="#2f6fe0"/><rect x="19" y="5" width="2" height="5" fill="#2f6fe0"/><rect x="6" y="3" width="3" height="1" fill="#ffffff44"/><rect x="4" y="1" width="16" height="1" fill="#222"/><rect x="3" y="2" width="1" height="3" fill="#222"/><rect x="20" y="2" width="1" height="3" fill="#222"/><rect x="0" y="7" width="4" height="6" fill="#222"/><rect x="1" y="8" width="2" height="4" fill="#4a9eff"/><rect x="1" y="8" width="2" height="1" fill="#bfe3ff"/><rect x="20" y="7" width="4" height="6" fill="#222"/><rect x="21" y="8" width="2" height="4" fill="#4a9eff"/><rect x="21" y="8" width="2" height="1" fill="#bfe3ff"/><rect x="3" y="4" width="1" height="3" fill="#222"/><rect x="20" y="4" width="1" height="3" fill="#222"/><g class="mc-bow"><rect x="13" y="0" width="3" height="3" fill="#fff"/><rect x="16" y="1" width="2" height="2" fill="#2f6fe0"/><rect x="18" y="0" width="3" height="3" fill="#fff"/><rect x="13" y="0" width="1" height="1" fill="#ffffff88"/><rect x="18" y="0" width="1" height="1" fill="#ffffff88"/><rect x="14" y="2" width="1" height="1" fill="#00000044"/><rect x="20" y="2" width="1" height="1" fill="#00000044"/><rect x="16" y="3" width="1" height="3" fill="#ff3b30"/><rect x="17" y="3" width="1" height="3" fill="#ffd54a"/><rect x="18" y="3" width="1" height="3" fill="#4ad66d"/></g><g class="mc-eyes"><rect x="6" y="9" width="3" height="1" fill="#1a1030"/><rect x="14" y="9" width="3" height="1" fill="#1a1030"/><rect x="5" y="9" width="1" height="1" fill="#1a1030"/><rect x="17" y="9" width="1" height="1" fill="#1a1030"/><rect x="5" y="8" width="1" height="1" fill="#1a1030"/><rect x="17" y="8" width="1" height="1" fill="#1a1030"/><rect x="6" y="10" width="3" height="4" fill="#1a1030"/><rect x="6" y="10" width="2" height="2" fill="#fff"/><rect x="8" y="12" width="1" height="1" fill="#9fe8ff"/><rect x="8" y="13" width="1" height="1" fill="#4a3a7a"/><rect x="14" y="10" width="3" height="4" fill="#1a1030"/><rect x="14" y="10" width="2" height="2" fill="#fff"/><rect x="16" y="12" width="1" height="1" fill="#9fe8ff"/><rect x="16" y="13" width="1" height="1" fill="#4a3a7a"/></g><rect x="18" y="3" width="6" height="1" fill="#6b4a2b"/><rect x="18" y="8" width="6" height="1" fill="#6b4a2b"/><rect x="18" y="3" width="1" height="6" fill="#6b4a2b"/><rect x="23" y="3" width="1" height="6" fill="#6b4a2b"/><rect x="19" y="4" width="4" height="4" fill="#bfe8ff"/><rect x="19" y="4" width="2" height="1" fill="#ffffff"/><rect x="22" y="9" width="1" height="6" fill="#7a4a1e"/><rect x="5" y="14" width="2" height="2" fill="#ff8aa8"/><rect x="17" y="14" width="2" height="2" fill="#ff8aa8"/><rect x="5" y="14" width="1" height="1" fill="#ffb0c8"/><rect x="17" y="14" width="1" height="1" fill="#ffb0c8"/><g class="mc-mouth"><rect x="10" y="15" width="1" height="1" fill="#c0143c"/><rect x="11" y="16" width="2" height="1" fill="#c0143c"/><rect x="13" y="15" width="1" height="1" fill="#c0143c"/><rect x="11" y="15" width="2" height="1" fill="#ff7a96"/></g></g></svg>
